<svg width="104" height="56" viewBox="0 0 104 56" fill="none" xmlns="http://www.w3.org/2000/svg">
<path d="M27.9994 56.0013C12.5599 56.0013 0 43.4414 0 28.0006C0 12.5611 12.5599 0 27.9994 0C43.4401 0 56 12.5611 56 28.0006C56 43.4414 43.4401 56.0013 27.9994 56.0013ZM27.9994 4.97774C15.3044 4.97774 4.97649 15.3057 4.97649 28.0006C4.97649 40.6956 15.3044 51.0248 27.9994 51.0248C40.6943 51.0248 51.0235 40.6956 51.0235 28.0006C51.0235 15.3057 40.6943 4.97774 27.9994 4.97774Z" fill="#00CFE7"/>
<path d="M40.2903 36.1142C37.5635 36.2783 35.5032 38.6744 35.5032 41.4063V46.3095C35.5032 46.9723 34.9654 47.5101 34.3027 47.5101C33.6399 47.5101 33.1021 46.9723 33.1021 46.3095V25.7989C33.1021 23.067 31.0418 20.6709 28.315 20.5068C25.3546 20.3288 22.8966 22.6769 22.8966 25.5994V46.3095C22.8966 46.9723 22.3588 47.5101 21.6961 47.5101C21.0333 47.5101 20.4955 46.9723 20.4955 46.3095V31.8017C20.4955 29.0698 18.4352 26.6738 15.7084 26.5096C12.748 26.3316 10.29 28.6798 10.29 31.6023V46.3563C14.879 50.7836 21.1179 53.513 27.9981 53.513C34.8783 53.513 41.1172 50.7849 45.7062 46.3563V41.2068C45.7087 38.2843 43.252 35.9362 40.2903 36.1142Z" fill="#00CFE7"/>
<path d="M15.7626 24.0606C18.2831 24.0606 20.3263 22.0174 20.3263 19.4969C20.3263 16.9765 18.2831 14.9332 15.7626 14.9332C13.2422 14.9332 11.199 16.9765 11.199 19.4969C11.199 22.0174 13.2422 24.0606 15.7626 24.0606Z" fill="#00CFE7"/>
<path d="M28.2077 16.5933C30.7282 16.5933 32.7714 14.5501 32.7714 12.0297C32.7714 9.50922 30.7282 7.46601 28.2077 7.46601C25.6873 7.46601 23.644 9.50922 23.644 12.0297C23.644 14.5501 25.6873 16.5933 28.2077 16.5933Z" fill="#00CFE7"/>
<path d="M40.6528 34.0161C43.1732 34.0161 45.2165 31.9728 45.2165 29.4524C45.2165 26.9319 43.1732 24.8887 40.6528 24.8887C38.1323 24.8887 36.0891 26.9319 36.0891 29.4524C36.0891 31.9728 38.1323 34.0161 40.6528 34.0161Z" fill="#00CFE7"/>
<path d="M74.84 19.3526C76.152 19.3526 77.456 19.6166 78.752 20.1446L78.224 22.9526L77.744 23.1446C77.2 22.7606 76.632 22.4566 76.04 22.2326C75.464 22.0086 74.936 21.8966 74.456 21.8966C73.816 21.8966 73.304 22.0726 72.92 22.4246C72.536 22.7606 72.344 23.1526 72.344 23.6006C72.344 24.0646 72.552 24.4566 72.968 24.7766C73.4 25.0966 74.072 25.4726 74.984 25.9046C75.864 26.3046 76.576 26.6806 77.12 27.0326C77.68 27.3686 78.152 27.8166 78.536 28.3766C78.936 28.9366 79.136 29.6246 79.136 30.4406C79.136 31.3206 78.896 32.1286 78.416 32.8646C77.936 33.5846 77.256 34.1606 76.376 34.5926C75.496 35.0086 74.48 35.2166 73.328 35.2166C71.808 35.2166 70.28 34.8886 68.744 34.2326L69.2 31.2086L69.56 31.0166C70.2 31.5766 70.896 32.0086 71.648 32.3126C72.416 32.6006 73.096 32.7446 73.688 32.7446C74.392 32.7446 74.936 32.5766 75.32 32.2406C75.72 31.8886 75.92 31.4726 75.92 30.9926C75.92 30.4806 75.704 30.0646 75.272 29.7446C74.856 29.4246 74.176 29.0406 73.232 28.5926C72.368 28.2086 71.664 27.8486 71.12 27.5126C70.576 27.1766 70.112 26.7286 69.728 26.1686C69.344 25.6086 69.152 24.9286 69.152 24.1286C69.152 23.2326 69.392 22.4246 69.872 21.7046C70.352 20.9686 71.024 20.3926 71.888 19.9766C72.752 19.5606 73.736 19.3526 74.84 19.3526ZM94.5931 30.2246L94.7131 35.0006H91.2091L84.8971 24.5366H84.7051L84.6811 29.6726L84.7771 35.0006H81.8251L81.9931 30.4406L81.8491 19.5446H85.3291L91.6411 30.0086H91.8571L91.7851 19.6886L94.7851 19.4966L94.5931 30.2246ZM101.633 30.1046L101.777 35.0006H98.5126L98.6806 30.3926L98.5126 19.5446H101.825L101.633 30.1046Z" fill="#002452"/>
</svg>
