<svg width="26" height="26" viewBox="0 0 26 26" fill="none" xmlns="http://www.w3.org/2000/svg">
<path d="M8.92092 18.2323C8.5304 18.6229 8.5304 19.256 8.92092 19.6466C9.31145 20.0371 9.94461 20.0371 10.3351 19.6466L8.92092 18.2323ZM16.0466 12.5208L16.7537 13.228C17.1443 12.8374 17.1443 12.2043 16.7537 11.8137L16.0466 12.5208ZM10.3351 5.39514C9.94461 5.00461 9.31145 5.00461 8.92092 5.39514C8.5304 5.78566 8.5304 6.41882 8.92092 6.80935L10.3351 5.39514ZM10.3351 19.6466L16.7537 13.228L15.3395 11.8137L8.92092 18.2323L10.3351 19.6466ZM16.7537 11.8137L10.3351 5.39514L8.92092 6.80935L15.3395 13.228L16.7537 11.8137Z" fill="#002452"/>
</svg>
