<svg width="91" height="68" viewBox="0 0 91 68" fill="none" xmlns="http://www.w3.org/2000/svg">
<path fill-rule="evenodd" clip-rule="evenodd" d="M34.7551 31.8614H16.2391C16.2391 29.4755 14.3048 27.687 12.0072 27.687V8.37775C14.3048 8.37775 16.2391 6.58553 16.2391 4.20337H35.1185V1.10278H8.73999V34.9582H34.1463L34.7551 31.8614Z" fill="#F3F3F3"/>
<path fill-rule="evenodd" clip-rule="evenodd" d="M55.9282 4.20337H74.9253C74.9253 6.58553 76.7431 8.37775 79.0432 8.37775V27.687C76.7431 27.687 74.9253 29.4755 74.9253 31.8614H55.9282V34.9582H82.3079V1.10278H55.9282V4.20337Z" fill="#F3F3F3"/>
<path fill-rule="evenodd" clip-rule="evenodd" d="M22.1699 18.0311C22.1699 20.6528 24.346 22.6808 26.8904 22.6808C29.5538 22.6808 31.6083 20.6515 31.6083 18.0311C31.6083 15.5267 29.5538 13.3828 26.8904 13.3828C24.346 13.3828 22.1699 15.5267 22.1699 18.0311Z" fill="#F3F3F3"/>
<path fill-rule="evenodd" clip-rule="evenodd" d="M68.9984 18.0311C68.9984 15.5267 66.8223 13.3828 64.1589 13.3828C61.6195 13.3828 59.4397 15.5267 59.4397 18.0311C59.4397 20.6528 61.6208 22.6808 64.1589 22.6808C66.8223 22.6808 68.9984 20.6515 68.9984 18.0311Z" fill="#F3F3F3"/>
<path fill-rule="evenodd" clip-rule="evenodd" d="M36.9312 0.386963H54.2383V35.6754H45.8848H36.9312V23.6349V0.386963Z" fill="#F3F3F3"/>
<path fill-rule="evenodd" clip-rule="evenodd" d="M90.7781 45.0931C90.1743 43.5403 87.6324 42.5887 84.731 42.8269C84.0057 42.9466 83.155 43.1886 82.4296 43.4268C78.9206 44.3797 60.8957 50.5771 60.6539 50.6956L60.2868 50.8165L60.5273 51.0535C62.5882 52.7248 63.5541 54.512 63.0718 55.94C62.4654 58.2074 59.5627 59.5183 54.6018 59.875C50.3661 60.2329 44.9203 59.875 38.5086 58.6839C39.2339 58.6839 40.0796 58.6839 40.8049 58.8036C45.4026 58.8036 49.7585 58.8037 53.1511 58.5654C58.3513 58.0903 60.7704 56.8979 61.1375 54.9897C61.254 53.6789 60.5273 52.6037 58.7146 51.7694C56.6613 50.8165 52.6675 50.3401 48.6711 49.6242C46.0077 49.2675 43.4683 48.9108 41.772 48.4343C35.4819 46.7631 28.9461 45.2141 21.5673 45.6905C20.3584 45.9275 19.1457 46.0485 18.057 46.2854C12.2504 47.2383 6.68433 48.5516 0.753668 50.2203L0.0283203 50.3389L8.74011 62.6201C10.3111 62.2621 11.8871 62.0239 13.458 61.9054C15.5138 61.6635 17.4519 61.787 19.2659 62.024C21.8078 62.3819 27.7359 63.5729 33.5463 64.764C39.4745 66.0748 45.1596 67.1499 47.3356 67.3881C48.6698 67.6264 49.7572 67.6264 51.0902 67.5067C53.8739 67.2697 56.9006 65.7194 59.8007 64.2876C60.6527 63.6915 61.6185 63.2163 62.3452 62.7386L88.24 49.0305C91.1414 47.3568 91.1414 45.8078 90.7781 45.0931Z" fill="#F3F3F3"/>
<path fill-rule="evenodd" clip-rule="evenodd" d="M44.6759 23.7534V18.6286C43.0999 18.2707 41.8909 17.5573 41.1656 16.5994C40.4402 15.6453 39.9567 14.5739 39.9567 13.2644C39.9567 11.9498 40.4402 10.8785 41.2871 9.92559C42.1327 8.97148 43.2252 8.49505 44.6759 8.37781V7.18176H46.4899V8.37781C47.7026 8.4963 48.79 8.97275 49.6369 9.6874C50.3648 10.4008 50.8483 11.3549 51.0901 12.6657L47.9444 13.0261C47.7026 12.0733 47.3368 11.3549 46.4899 11.1167V15.7663C48.428 16.3612 49.7584 17.0759 50.6053 17.7942C51.2104 18.6286 51.5737 19.8184 51.5737 21.133C51.5737 22.5635 51.0901 23.7546 50.2432 24.826C49.2736 25.7838 48.0609 26.3787 46.4899 26.617V28.8806H44.6759V26.7354C43.2252 26.4985 42.1327 26.022 41.2871 25.0642C40.32 24.2298 39.7161 23.0388 39.4744 21.4872L42.7416 21.133C42.8581 21.7292 43.1011 22.3253 43.467 22.8005C43.829 23.2769 44.3138 23.5139 44.6759 23.7534Z" fill="#F3F3F3"/>
<path fill-rule="evenodd" clip-rule="evenodd" d="M46.4897 23.8717C47.0936 23.752 47.5784 23.3953 47.9442 22.9189C48.3063 22.5622 48.5493 21.9647 48.5493 21.3698C48.5493 20.8934 48.4278 20.412 48.062 19.9381C47.7025 19.5801 47.2189 19.3406 46.4897 19.1024V23.8717Z" fill="#F3F3F3"/>
<path fill-rule="evenodd" clip-rule="evenodd" d="M44.6759 10.9971C44.1923 11.2353 43.829 11.4723 43.467 11.8352C43.2252 12.1869 43.0999 12.6646 43.0999 13.1447C43.0999 13.6224 43.2252 13.9791 43.467 14.3358C43.7088 14.6938 44.1923 15.0505 44.6759 15.1702V10.9971Z" fill="#F3F3F3"/>
</svg>
