<svg width="102" height="49" viewBox="0 0 102 49" fill="none" xmlns="http://www.w3.org/2000/svg">
<path fill-rule="evenodd" clip-rule="evenodd" d="M70.6498 23.9524C66.4772 29.0152 60.8208 33.8059 57.7293 36.6795C55.712 38.4592 51.6745 42.9766 50.5948 42.9766C49.5178 42.9766 45.7549 39.0076 43.5996 36.953L43.3307 36.6795C40.2392 34.0794 34.4477 29.0152 30.1414 23.9524H42.6578C42.9267 23.9524 43.3307 23.8149 43.3307 23.5414L44.4062 21.3522L46.0237 29.973C46.1532 30.52 46.4221 30.7934 46.9655 30.7934C47.3696 30.7934 47.6384 30.3825 47.7722 29.973L49.1166 18.7521L50.3259 26.1387C50.3259 26.5525 50.7341 26.8245 51.0016 26.8245C51.4014 26.8245 51.8083 26.6871 51.9434 26.2747L53.1526 23.2665L54.6308 27.5103C54.766 27.7824 55.0334 28.0573 55.3037 28.0573C55.7106 28.0573 55.9809 27.9198 56.1104 27.6464L57.9968 23.9509H70.6498V23.9524Z" fill="#F3F3F3"/>
<path fill-rule="evenodd" clip-rule="evenodd" d="M101.06 13.0048C100.25 12.4579 98.5011 12.7313 97.158 13.8252C96.7498 14.0987 96.3514 14.3722 95.9432 14.7831C94.3299 16.5628 86.5224 25.5946 86.5224 25.868L86.2549 26.0055H86.5224C88.1399 26.4178 89.2155 27.1008 89.4843 28.0601C89.8884 29.4275 88.6777 31.0683 86.124 32.8509C83.9687 34.4917 80.8759 35.9951 77.1073 37.3653C77.3762 37.0918 77.9139 36.8184 78.3179 36.6809C80.8758 35.1747 83.0283 33.8073 84.9105 32.5774C87.6036 30.7948 88.5453 29.2914 88.1413 28.0601C87.7387 27.3743 87.0658 26.9633 85.8565 27.1008C84.3727 27.1008 82.088 28.1976 79.6624 29.0165C78.0491 29.7009 76.5653 30.2479 75.4912 30.5213C71.5888 31.6181 67.5542 32.8509 63.7856 35.5856C63.1141 35.9965 62.4412 36.406 62.0386 36.9558C59.2104 39.2825 56.5229 41.7466 53.9622 44.6202L53.5596 44.8937L62.1723 49.0001C62.8452 48.3157 63.6504 47.6298 64.4585 47.0843C65.534 46.261 66.6138 45.7141 67.6893 45.3046C69.1689 44.7577 72.8023 43.5263 76.2978 42.2936C79.9326 41.1968 83.2972 39.9669 84.5079 39.4199C85.3145 39.1465 85.9875 38.7356 86.6632 38.3261C88.1413 37.2307 89.2169 35.451 90.2938 33.6727C90.5669 33.1258 90.9667 32.5788 91.2342 32.029L100.922 16.1533C101.867 14.2347 101.459 13.4143 101.06 13.0048Z" fill="#F3F3F3"/>
<path fill-rule="evenodd" clip-rule="evenodd" d="M0.94417 13.0048C1.75082 12.4579 3.49925 12.7313 4.84366 13.8252C5.24628 14.0987 5.65455 14.3722 6.05295 14.7831C7.67047 16.5628 15.4723 25.5946 15.4723 25.868L15.7412 26.0055H15.4723C13.859 26.4178 12.7835 27.1008 12.5146 28.0601C12.112 29.4275 13.3212 31.0683 15.8806 32.8509C18.0316 34.4917 21.1273 35.9951 24.8917 37.3653C24.6228 37.0918 24.085 36.8184 23.681 36.6809C21.2568 35.1747 18.8369 33.8073 17.0898 32.5774C14.3954 30.7948 13.455 29.2914 13.8576 28.0601C14.2616 27.3743 14.9331 26.9633 16.148 27.1008C17.6262 27.1008 19.9124 28.1976 22.3366 29.0165C23.9499 29.7009 25.4294 30.2479 26.5092 30.5213C30.4087 31.6181 34.4447 32.8509 38.2133 35.5856C38.8862 35.9965 39.5577 36.406 39.9618 36.9558C42.79 39.2825 45.483 41.7466 48.0367 44.6202L48.4407 44.8937L39.8266 49.0001C39.1551 48.3157 38.3485 47.6298 37.4067 47.0843C36.4663 46.261 35.3851 45.7141 34.3096 45.3046C32.8301 44.7577 29.1966 43.5263 25.6955 42.2936C22.0663 41.1968 18.7003 39.9669 17.3559 39.4199C16.683 39.1465 16.0072 38.7356 15.3386 38.3261C13.8548 37.2307 12.7792 35.451 11.7037 33.6727C11.4348 33.1258 11.0266 32.5788 10.7577 32.029L1.06805 16.1533C0.138925 14.2347 0.537326 13.4143 0.94417 13.0048Z" fill="#F3F3F3"/>
<path fill-rule="evenodd" clip-rule="evenodd" d="M76.0261 14.6444C75.6277 16.971 74.0088 19.5726 72.1266 22.1727H57.5942C57.1902 22.1727 56.9213 22.3116 56.7876 22.5851L55.5727 24.9089L54.0945 20.529C53.9594 20.1195 53.6905 19.8461 53.2879 19.8461C53.019 19.8461 52.7501 20.1195 52.4812 20.393L51.5409 22.8585L49.9234 13.0049C49.7896 12.594 49.5193 12.3205 49.1167 12.3205C48.5789 12.3205 48.1749 12.594 48.1749 13.0049L46.8305 24.4994L45.6156 18.3412C45.4861 17.9303 45.2115 17.6569 44.9426 17.6569C44.5386 17.6569 44.136 17.7943 44.0023 18.0678L42.1201 22.1727H28.797C26.7797 19.4351 25.3015 16.835 24.8933 14.6444C24.0866 10.402 24.7596 6.98284 26.646 4.5173C28.6633 2.05605 32.0278 0.548344 36.6031 0.13742C37.0071 -3.1811e-05 37.4097 0 37.8137 0C41.8512 0 45.8844 1.77969 48.4438 4.79074C48.9815 5.33769 49.653 5.61116 50.4653 5.61116C51.272 5.61116 51.9435 5.33769 52.4812 4.79074C54.9012 1.77969 59.0738 0 63.1113 0C63.5153 0 63.9179 -3.1811e-05 64.1868 0.13742C68.8972 0.548344 72.128 2.05605 74.1439 4.5173C76.1669 6.98428 76.7033 10.402 76.0261 14.6444Z" fill="#F3F3F3"/>
</svg>
