<svg width="63" height="97" viewBox="0 0 63 97" fill="none" xmlns="http://www.w3.org/2000/svg">
<path fill-rule="evenodd" clip-rule="evenodd" d="M52.7186 55.5341C50.0536 55.665 47.7635 58.274 47.8898 61.1394C48.0174 63.7484 50.4285 66.2238 53.0987 66.0929C55.8953 65.9633 58.0539 63.488 57.8 60.4889C57.6724 57.6194 55.5151 55.4032 52.7186 55.5341Z" fill="#F3F3F3"/>
<path fill-rule="evenodd" clip-rule="evenodd" d="M8.7594 62.0516C11.0442 62.1826 12.9529 64.3974 12.8213 66.8755C12.8213 69.0917 10.6628 71.0461 8.50556 70.9152C6.08915 70.9152 4.31339 68.8312 4.43833 66.2222C4.56726 63.8778 6.47059 62.0516 8.7594 62.0516Z" fill="#F3F3F3"/>
<path fill-rule="evenodd" clip-rule="evenodd" d="M37.7272 42.3675C37.7272 45.6271 35.057 48.2361 31.8803 48.2361C28.4537 48.2361 25.9097 45.4961 26.0373 41.9774C26.0373 38.5897 28.7076 36.1102 32.0119 36.1102C35.1846 36.1089 37.7272 38.9797 37.7272 42.3675Z" fill="#F3F3F3"/>
<path fill-rule="evenodd" clip-rule="evenodd" d="M24.2587 60.0975C23.751 60.879 23.117 61.5309 22.8631 62.3137C20.7006 66.7462 17.5239 70.1353 14.2236 73.5258C13.2081 74.4368 12.8226 75.4788 12.9542 76.784C12.9542 82.6525 12.9542 88.5184 12.9542 94.3828C12.9542 95.688 13.0818 96.9919 11.427 96.9919C9.77753 96.9919 9.39738 95.9472 9.39738 94.5124C9.52365 91.5147 9.52365 88.6479 9.52365 85.7771C9.39738 84.9956 9.90379 83.6931 8.63577 83.6931C7.49403 83.6931 7.7479 84.9956 7.7479 85.6475C7.7479 88.517 7.7479 91.2542 7.7479 94.1223C7.7479 95.4248 8.00176 96.9919 5.96549 96.9919C4.18974 96.9919 4.31601 95.4248 4.31601 94.2519C4.31601 88.7775 4.44228 83.5636 4.31601 78.2187C4.31601 77.3063 4.69613 76.3939 3.29918 74.9578C3.29918 77.4372 3.29918 79.2607 3.29918 81.0855C3.29918 82.2597 3.55307 83.4326 1.89827 83.4326C0.502654 83.4326 0.628942 82.2597 0.628942 81.2164C0.628942 79.1311 0.628942 77.1767 0.628942 74.9578C0.628942 72.7443 1.64442 71.4391 4.06083 71.57C5.96418 71.6996 7.74658 71.57 9.65126 71.57C12.9555 71.57 14.2249 70.3958 15.7481 67.3994C18.5447 61.6618 21.7187 56.0551 25.5307 51.1016C26.6725 49.5387 28.0747 48.4967 29.9781 50.3202C31.1212 51.3621 32.7746 51.2312 33.9177 50.1892C35.4409 48.7572 36.4604 49.4078 37.7297 50.5793C39.3792 52.1436 40.4 54.1007 41.5417 56.0537C43.3188 59.0541 45.0999 62.0518 47.0046 65.0495C47.0046 65.31 47.2584 65.5705 47.386 65.7001C48.4015 66.4843 49.8011 66.8757 51.7045 66.8757C53.863 66.8757 56.1519 67.0053 58.3091 66.8757C61.1056 66.8757 62.375 68.3105 62.375 70.9154C62.375 73.3935 62.375 75.8688 62.375 78.3483C62.375 79.5198 62.5026 80.9559 60.8518 80.9559C58.9444 80.9559 59.197 79.5212 59.197 78.2187C59.197 75.9998 59.197 73.7863 59.197 70.9168C57.5462 72.6134 57.9276 73.6567 57.9276 74.6973C57.9276 81.0855 57.9276 87.3441 57.9276 93.7309C57.9276 95.1643 58.1802 96.9919 56.0229 96.9919C53.7341 96.9919 53.8617 95.1643 53.8617 93.4704C53.8617 90.2109 53.8617 86.9541 53.8617 83.5636C53.8617 82.7821 54.2418 81.2164 52.9725 81.2164C51.323 81.2164 51.957 82.7807 51.957 83.6931C51.8294 87.2146 51.957 90.6009 51.957 93.9914C51.957 95.6867 51.4493 97.1214 49.6682 96.9919C47.6373 96.9919 47.7635 95.2939 47.7635 93.9914C47.7635 86.9527 47.7635 80.0422 47.7635 73.0034C47.8898 69.0919 45.9825 70.6549 43.8239 67.2658C42.4283 64.9186 40.6512 62.0519 38.9964 60.0961C40.1382 64.0076 41.2812 67.9191 42.4283 71.6982C43.3162 75.2183 42.936 75.8688 39.3779 75.8688C37.4745 75.7379 37.2193 76.5221 37.2193 78.2174C37.2193 83.1708 37.2193 88.1256 37.2193 93.079C37.2193 94.9011 37.2193 96.9905 34.9305 96.9905C32.7719 96.9905 32.8996 94.9011 32.8996 93.2099C32.8996 88.3861 32.8996 83.4326 32.8996 78.6088C32.8996 77.6977 33.5349 75.9998 31.8801 75.9998C30.103 75.9998 30.8646 77.6977 30.8646 78.4792C30.8646 83.5636 30.8646 88.517 30.8646 93.7309C30.8646 95.1643 30.6107 96.5991 29.0875 96.8609C27.0566 97.2523 26.5488 95.6867 26.5488 93.9914C26.5488 88.9071 26.4172 83.6931 26.5488 78.6088C26.5488 76.5235 26.0371 75.7393 23.8785 75.8688C20.9544 75.9998 20.448 75.0874 21.2096 72.2206C22.3553 68.3105 23.4984 64.399 24.6402 60.3566C24.5126 60.227 24.3863 60.227 24.2587 60.0975Z" fill="#F3F3F3"/>
<path fill-rule="evenodd" clip-rule="evenodd" d="M0.5 34.0249C1.26161 34.0249 1.89562 33.7658 2.53495 33.6348C5.19991 33.1111 7.74393 33.2421 10.2826 34.0249C11.9374 34.5459 11.9374 34.5459 12.1913 32.8506C12.5674 28.2886 13.7145 23.9871 15.4903 19.8151C17.1451 15.3827 19.5575 11.4699 22.9894 8.34258C23.3695 7.95116 23.8772 7.68931 24.0048 7.16832C23.6234 6.7769 23.2432 7.03876 22.8631 7.03876C11.8072 9.51685 2.53629 19.8165 0.75522 31.285C0.75522 31.4159 0.628938 31.6764 0.501339 31.9369C0.500009 32.5902 0.5 33.3744 0.5 34.0249Z" fill="#F3F3F3"/>
<path fill-rule="evenodd" clip-rule="evenodd" d="M32.0105 0C33.4061 1.17153 32.0105 4.30289 32.7721 5.86584C33.1536 6.77688 34.5492 6.51639 35.3108 6.90781C38.1074 8.34256 40.2672 10.5588 41.9207 13.0369C45.7288 18.5113 47.6361 24.7699 48.6529 31.2849C48.7792 32.1973 49.0331 33.1111 49.1593 34.0249C49.2869 34.8064 49.1593 35.1978 48.2715 34.8064C43.5702 33.1111 38.7427 32.1973 33.7876 31.8059C29.7217 31.4145 25.7821 32.0664 21.8478 32.8506C19.4314 33.242 17.1465 33.8953 14.8577 34.8064C13.8423 35.0668 13.5884 34.6768 13.716 33.7644C13.8436 31.8059 14.2237 29.8515 14.7315 27.8972C15.8732 22.1595 17.7832 16.816 21.3414 12.2513C23.1184 9.90687 25.1494 7.68792 27.9459 6.64731C30.2308 5.86584 30.2308 5.86584 30.2308 3.25956C30.2308 2.0853 29.8506 0.912403 30.8661 0C31.2489 0 31.6251 0 32.0105 0Z" fill="#F3F3F3"/>
<path fill-rule="evenodd" clip-rule="evenodd" d="M62.5001 34.0249C61.7385 34.0249 61.1045 33.7658 60.4691 33.6348C57.7988 33.1111 55.2602 33.2421 52.7175 34.0249C51.0667 34.5459 51.0666 34.5459 50.8128 32.8506C50.305 28.2886 49.2856 23.9871 47.5072 19.8151C45.7261 15.3827 43.4413 11.4699 40.0094 8.34258C39.6279 7.95116 39.1215 7.68931 38.9939 7.16832C39.374 6.7769 39.7555 7.03876 40.1357 7.03876C51.1916 9.51685 60.4665 19.8165 62.2435 31.285C62.2435 31.4159 62.3698 31.6764 62.4974 31.9369C62.5001 32.5902 62.5001 33.3744 62.5001 34.0249Z" fill="#F3F3F3"/>
</svg>
