<svg width="250" height="250" viewBox="0 0 250 250" fill="none" xmlns="http://www.w3.org/2000/svg">
<path d="M124.997 250.006C56.0709 250.006 0 193.935 0 125.003C0 56.0765 56.0709 0 124.997 0C193.929 0 250 56.0765 250 125.003C250 193.935 193.929 250.006 124.997 250.006ZM124.997 22.2221C68.3232 22.2221 22.2165 68.3288 22.2165 125.003C22.2165 181.677 68.3232 227.789 124.997 227.789C181.671 227.789 227.784 181.677 227.784 125.003C227.784 68.3288 181.671 22.2221 124.997 22.2221Z" fill="#00CFE7"/>
<path d="M179.868 161.224C167.694 161.957 158.497 172.654 158.497 184.849V206.739C158.497 209.698 156.096 212.099 153.137 212.099C150.178 212.099 147.777 209.698 147.777 206.739V115.174C147.777 102.978 138.58 92.2809 126.406 91.5482C113.19 90.7536 102.217 101.236 102.217 114.283V206.739C102.217 209.698 99.8164 212.099 96.8575 212.099C93.8987 212.099 91.4978 209.698 91.4978 206.739V141.972C91.4978 129.776 82.3001 119.079 70.1267 118.347C56.9107 117.552 45.9377 128.035 45.9377 141.082V206.948C66.424 226.713 94.2763 238.897 124.992 238.897C155.707 238.897 183.559 226.718 204.046 206.948V183.959C204.057 170.912 193.089 160.429 179.868 161.224Z" fill="#00CFE7"/>
<path d="M70.3689 107.413C81.6209 107.413 90.7424 98.2914 90.7424 87.0394C90.7424 75.7874 81.6209 66.6658 70.3689 66.6658C59.1169 66.6658 49.9954 75.7874 49.9954 87.0394C49.9954 98.2914 59.1169 107.413 70.3689 107.413Z" fill="#00CFE7"/>
<path d="M125.927 74.0778C137.179 74.0778 146.301 64.9563 146.301 53.7043C146.301 42.4523 137.179 33.3308 125.927 33.3308C114.675 33.3308 105.554 42.4523 105.554 53.7043C105.554 64.9563 114.675 74.0778 125.927 74.0778Z" fill="#00CFE7"/>
<path d="M181.486 151.858C192.738 151.858 201.859 142.736 201.859 131.484C201.859 120.232 192.738 111.11 181.486 111.11C170.234 111.11 161.112 120.232 161.112 131.484C161.112 142.736 170.234 151.858 181.486 151.858Z" fill="#00CFE7"/>
</svg>
